<svg width="243" height="83" viewBox="0 0 243 83" fill="none" xmlns="http://www.w3.org/2000/svg">
<path d="M184.711 80.0117L186.12 81.4175L184.749 82.7848L183.34 81.379L184.711 80.0117Z" fill="white"/>
<path d="M190.743 70.8299H186.407V69.4883H196.552V70.8299H192.216V82.3665H190.743V70.8299Z" fill="white"/>
<path d="M199.649 69.4883H208.98V70.8128H201.106V75.2096H208.153V76.5341H201.106V81.042H209.074V82.3665H199.649V69.4883Z" fill="white"/>
<path d="M211.799 75.9615V75.923C211.799 72.2783 214.528 69.2617 218.328 69.2617C220.671 69.2617 222.072 70.0906 223.362 71.3041L222.368 72.3723C221.279 71.3426 220.063 70.6077 218.311 70.6077C215.453 70.6077 213.311 72.9235 213.311 75.8888V75.9273C213.311 78.9097 215.47 81.2427 218.311 81.2427C220.08 81.2427 221.245 80.5633 222.479 79.384L223.439 80.324C222.093 81.687 220.615 82.5886 218.272 82.5886C214.545 82.5886 211.799 79.6617 211.799 75.9657V75.9615Z" fill="white"/>
<path d="M226.348 69.4883H227.804V75.2096H235.254V69.4883H236.711V82.3665H235.254V76.5726H227.804V82.3665H226.348V69.4883Z" fill="white"/>
<mask id="mask0_703_31631" style="mask-type:luminance" maskUnits="userSpaceOnUse" x="0" y="0" width="75" height="75">
<path d="M37.5145 74.9375C58.1652 74.9375 74.9059 58.2006 74.9059 37.5547C74.9059 16.9087 58.1652 0.171875 37.5145 0.171875C16.8638 0.171875 0.123047 16.9087 0.123047 37.5547C0.123047 58.2006 16.8638 74.9375 37.5145 74.9375Z" fill="white"/>
</mask>
<g mask="url(#mask0_703_31631)">
<mask id="mask1_703_31631" style="mask-type:luminance" maskUnits="userSpaceOnUse" x="54" y="21" width="22" height="34">
<path d="M71.1873 54.5561L54.5693 37.858L71.4015 21.5487C71.4015 21.5487 75.5056 29.5218 75.5613 37.9178C75.617 46.3139 71.1873 54.5604 71.1873 54.5604V54.5561Z" fill="white"/>
</mask>
<g mask="url(#mask1_703_31631)">
<mask id="mask2_703_31631" style="mask-type:luminance" maskUnits="userSpaceOnUse" x="-1" y="0" width="77" height="76">
<path d="M75.1973 0.175659H-0.176758V75.5352H75.1973V0.175659Z" fill="white"/>
</mask>
<g mask="url(#mask2_703_31631)">
<path d="M71.1871 56.6583L52.4229 37.8964L71.1443 19.1815L89.9085 37.9434L71.1871 56.6583Z" fill="#7DC245"/>
</g>
</g>
<mask id="mask3_703_31631" style="mask-type:luminance" maskUnits="userSpaceOnUse" x="20" y="54" width="35" height="22">
<path d="M37.545 75.595C24.0074 75.595 20.8457 71.5743 20.8457 71.5743L37.545 54.8847L54.2187 71.5487C54.2187 71.5487 51.087 75.5907 37.545 75.5907V75.595Z" fill="white"/>
</mask>
<g mask="url(#mask3_703_31631)">
<mask id="mask4_703_31631" style="mask-type:luminance" maskUnits="userSpaceOnUse" x="-1" y="0" width="77" height="76">
<path d="M75.1983 0.175659H-0.175781V75.5352H75.1983V0.175659Z" fill="white"/>
</mask>
<g mask="url(#mask4_703_31631)">
<path d="M37.5201 90.3655L18.7344 71.5822L37.5458 52.7733L56.3314 71.5566L37.5201 90.3655Z" fill="#2FACCD"/>
</g>
</g>
<mask id="mask5_703_31631" style="mask-type:luminance" maskUnits="userSpaceOnUse" x="3" y="37" width="35" height="35">
<path d="M37.5445 54.8895L20.4767 37.8281L3.72168 54.5604C3.72168 54.5604 4.85696 58.4957 10.679 64.2725C16.5011 70.0494 20.8623 71.5705 20.8623 71.5705L37.5445 54.8895Z" fill="white"/>
</mask>
<g mask="url(#mask5_703_31631)">
<mask id="mask6_703_31631" style="mask-type:luminance" maskUnits="userSpaceOnUse" x="-1" y="0" width="77" height="76">
<path d="M75.1973 0.175781H-0.176758V75.5353H75.1973V0.175781Z" fill="white"/>
</mask>
<g mask="url(#mask6_703_31631)">
<path d="M39.6518 54.8877L20.4677 35.707L0.238281 55.9345L19.4224 75.1151L39.6518 54.8877Z" fill="#3292D0"/>
</g>
</g>
<mask id="mask7_703_31631" style="mask-type:luminance" maskUnits="userSpaceOnUse" x="20" y="0" width="35" height="21">
<path d="M37.544 20.7625L20.9004 4.12422C20.9004 4.12422 26.4783 0.154778 37.5569 0.171869C48.6312 0.18896 54.2348 4.14985 54.2348 4.14985L37.544 20.7625Z" fill="white"/>
</mask>
<g mask="url(#mask7_703_31631)">
<mask id="mask8_703_31631" style="mask-type:luminance" maskUnits="userSpaceOnUse" x="-1" y="0" width="77" height="76">
<path d="M75.1963 0.17572H-0.177734V75.5352H75.1963V0.17572Z" fill="white"/>
</mask>
<g mask="url(#mask8_703_31631)">
<path d="M37.582 22.908L18.792 4.12476L37.552 -14.6329L56.3419 4.15039L37.582 22.908Z" fill="#405BA9"/>
</g>
</g>
<mask id="mask9_703_31631" style="mask-type:luminance" maskUnits="userSpaceOnUse" x="3" y="4" width="35" height="34">
<path d="M20.4813 37.8235L3.77344 21.1168C3.77344 21.1168 4.25325 17.6046 10.4952 11.2637C16.7328 4.92714 20.7855 3.99994 20.7855 3.99994L37.5491 20.7579L20.4813 37.8192V37.8235Z" fill="white"/>
</mask>
<g mask="url(#mask9_703_31631)">
<mask id="mask10_703_31631" style="mask-type:luminance" maskUnits="userSpaceOnUse" x="-1" y="0" width="77" height="76">
<path d="M75.1973 0.175781H-0.176758V75.5353H75.1973V0.175781Z" fill="white"/>
</mask>
<g mask="url(#mask10_703_31631)">
<path d="M20.4813 39.93L0.0976562 19.5487L19.2689 0.380859L39.6525 20.7622L20.4813 39.93Z" fill="#416AB3"/>
</g>
</g>
<mask id="mask11_703_31631" style="mask-type:luminance" maskUnits="userSpaceOnUse" x="-1" y="21" width="22" height="34">
<path d="M3.78591 54.5186C3.78591 54.5186 -0.408203 51.0833 -0.408203 37.8248C-0.408203 24.5663 3.8159 21.1523 3.8159 21.1523L20.4767 37.8248L3.78162 54.5186H3.78591Z" fill="white"/>
</mask>
<g mask="url(#mask11_703_31631)">
<mask id="mask12_703_31631" style="mask-type:luminance" maskUnits="userSpaceOnUse" x="-1" y="0" width="77" height="76">
<path d="M75.1973 0.17572H-0.176758V75.5352H75.1973V0.17572Z" fill="white"/>
</mask>
<g mask="url(#mask12_703_31631)">
<path d="M3.7814 56.6285L-15 37.8495L3.81138 19.0449L22.5928 37.8196L3.7814 56.6285Z" fill="#427CBF"/>
</g>
</g>
<mask id="mask13_703_31631" style="mask-type:luminance" maskUnits="userSpaceOnUse" x="37" y="4" width="35" height="34">
<path d="M54.5781 37.858L71.4274 21.5188C71.4274 21.5188 68.2101 14.7806 64.0931 10.6231C59.9718 6.4657 54.2226 4.15411 54.2226 4.15411L37.5146 20.7924L54.5781 37.858Z" fill="white"/>
</mask>
<g mask="url(#mask13_703_31631)">
<mask id="mask14_703_31631" style="mask-type:luminance" maskUnits="userSpaceOnUse" x="-1" y="0" width="77" height="76">
<path d="M75.1973 0.175598H-0.176758V75.5351H75.1973V0.175598Z" fill="white"/>
</mask>
<g mask="url(#mask14_703_31631)">
<path d="M72.9179 2.66193H36.0234V39.3483H72.9179V2.66193Z" fill="#3B57A6"/>
</g>
</g>
<mask id="mask15_703_31631" style="mask-type:luminance" maskUnits="userSpaceOnUse" x="37" y="37" width="35" height="35">
<path d="M54.2186 71.5616L37.5449 54.8849L54.5656 37.8535L71.9161 54.8849L54.2186 71.5616Z" fill="white"/>
</mask>
<g mask="url(#mask15_703_31631)">
<mask id="mask16_703_31631" style="mask-type:luminance" maskUnits="userSpaceOnUse" x="-1" y="0" width="77" height="76">
<path d="M75.1973 0.175842H-0.176758V75.5354H75.1973V0.175842Z" fill="white"/>
</mask>
<g mask="url(#mask16_703_31631)">
<path d="M54.7275 74.1757L35.4277 54.8797L54.7232 35.588L74.023 54.884L54.7275 74.1757Z" fill="#48BEA6"/>
</g>
</g>
</g>
<path fill-rule="evenodd" clip-rule="evenodd" d="M54.5564 37.8301C54.5564 37.8301 59.753 42.4362 65.3138 46.6577C70.8745 50.8792 75.6855 53.5198 75.6855 53.5198C75.8269 53.601 75.8654 53.7677 75.7626 53.9001C75.7626 53.9001 71.7656 59.318 65.3138 64.0352C58.8619 68.7481 54.0938 71.0683 54.0938 71.0683L54.5564 37.8301Z" fill="#D1CA37"/>
<mask id="mask17_703_31631" style="mask-type:luminance" maskUnits="userSpaceOnUse" x="54" y="37" width="22" height="35">
<path d="M54.5564 37.8301C54.5564 37.8301 59.753 42.4362 65.3138 46.6577C70.8745 50.8792 75.6855 53.5198 75.6855 53.5198C75.8269 53.601 75.8654 53.7677 75.7626 53.9001C75.7626 53.9001 71.7656 59.318 65.3138 64.0352C58.8619 68.7481 54.0938 71.0683 54.0938 71.0683L54.5564 37.8301Z" fill="white"/>
</mask>
<g mask="url(#mask17_703_31631)">
<path d="M76.1057 -1.49219H-1.04199V75.6405H76.1057V-1.49219Z" fill="#D1CA37"/>
</g>
<path d="M219.644 61.0401C213.273 61.0401 207.365 58.5918 203.017 54.148C198.677 49.7129 196.287 43.7096 196.287 37.2363C196.287 30.9168 198.677 25.063 203.021 20.7475C207.365 16.4362 213.269 14.0605 219.644 14.0605C232.74 14.0605 243 24.2384 243 37.2363C243 50.5845 232.74 61.0401 219.644 61.0401ZM108.309 61.0401C94.5571 61.0401 84.5752 51.1101 84.5752 37.4243C84.5752 30.874 86.9186 24.9348 91.177 20.7005C95.4825 16.4191 101.587 14.0605 108.369 14.0605C115.673 14.0605 125.955 16.949 125.955 23.371V29.4213H119.002V25.5672C119.002 22.3669 113.621 20.6364 108.557 20.6364C98.6698 20.6364 92.278 27.1524 92.278 37.2363C92.278 47.5038 98.8969 54.4001 108.746 54.4001C113.099 54.4001 120.009 53.0627 120.009 49.4693V44.2266H111.355V38.1506H126.962V51.1613C126.962 58.3568 115.519 61.0358 108.309 61.0358V61.0401ZM195.434 60.2881H191.082C187.093 60.2881 186.026 59.472 184.424 56.6647L177.587 44.5556C176.576 42.8678 175.946 42.4106 173.461 42.4106H168.783V54.2164H174.241V60.2923H155.811V54.2164H161.329V20.8329H155.811V14.8211H175.59C178.941 14.8211 181.507 14.9835 183.932 15.791C189.09 17.5343 192.05 21.9225 192.05 27.8318C192.05 34.053 188.862 38.7275 183.46 40.5306C183.859 40.9066 184.33 41.4493 184.707 42.1756L190.966 53.0713C191.493 53.9814 192.02 54.2164 193.528 54.2164H195.434V60.2923V60.2881ZM150.914 60.2881H132.36V54.2121H137.878V20.8287H132.36V14.8168H150.914V20.8287H145.332V54.2121H150.914V60.2881ZM219.644 20.7646C210.831 20.7646 203.93 27.9984 203.93 37.2363C203.93 46.7903 210.831 54.272 219.644 54.272C228.422 54.272 235.293 46.7903 235.293 37.2363C235.293 27.9984 228.417 20.7646 219.644 20.7646ZM168.783 36.0826H177.098C181.687 36.0826 184.536 33.113 184.536 28.3317C184.536 25.0972 183.267 22.9394 180.766 21.914C179.459 21.4012 177.698 21.1406 175.535 21.1406H168.787V36.0826H168.783Z" fill="white"/>
</svg>
