<svg xmlns="http://www.w3.org/2000/svg" xmlns:xlink="http://www.w3.org/1999/xlink" xmlns:svgjs="http://svgjs.dev/svgjs" version="1.1" width="600" height="130">

    <defs>
        <linearGradient id="myGradient" gradientTransform="rotate(90)">
            <stop offset="40%" stop-color="#f66b40" />
            <stop offset="80%" stop-color="#c600c0" />
        </linearGradient>
    </defs>
    <g transform="matrix(1,0,0,1,174.25639863204998,42.1203980516605)">
                                <svg viewBox="0 0 395.52 61.14558994501177" height="61.14558994501177" width="395.52">
                                    <g id="textblocktransform">
                                        <svg viewBox="0 0 395.52 61.14558994501177" height="61.14558994501177" width="395.52" id="textblock">
                                            <g>
                                                <svg viewBox="0 0 395.52 61.14558994501177" height="61.14558994501177" width="395.52">
                                                    <g transform="matrix(1,0,0,1,0,0)">
                                                        <svg width="395.52" viewBox="4.5 -37 318.22 49.2" height="61.14558994501177" data-palette-color="#00ffff">
                                                            <path d="M25.5 0L4.5 0 4.5-35 25.5-35 25.5-30.9 9.25-30.9 9.25-20.25 23.25-20.25 23.25-16.25 9.25-16.25 9.25-4.1 25.5-4.1 25.5 0ZM41.9 0L37.2 0 26.75-24.8 30.85-26.5 39.7-5.1 48.55-26.5 52.4-24.8 41.9 0ZM66.3 0.6L66.3 0.6Q60.7 0.6 57.42-2.98 54.15-6.55 54.15-13L54.15-13Q54.15-16.9 55.62-19.98 57.1-23.05 59.75-24.83 62.4-26.6 65.9-26.6L65.9-26.6Q69.65-26.6 72.12-24.98 74.59-23.35 75.84-20.6 77.09-17.85 77.09-14.55L77.09-14.55Q77.09-12.8 76.95-11.15L76.95-11.15 58.75-11.15Q59.2-7.5 61.3-5.45 63.4-3.4 66.84-3.4L66.84-3.4Q69.09-3.4 70.9-3.88 72.7-4.35 74.34-5.1L74.34-5.1 75.4-1.25Q73.59-0.45 71.34 0.08 69.09 0.6 66.3 0.6ZM58.7-14.8L58.7-14.8 72.95-14.8Q72.95-18.6 71.05-20.65 69.15-22.7 65.8-22.7L65.8-22.7Q62.9-22.7 61-20.68 59.1-18.65 58.7-14.8ZM90.99 0.6L90.99 0.6Q88.69 0.6 86.84-0.28 84.99-1.15 83.92-3.1 82.84-5.05 82.84-8.15L82.84-8.15 82.84-37 87.34-37 87.34-8.6Q87.34-5.9 88.47-4.6 89.59-3.3 91.59-3.3L91.59-3.3Q92.54-3.3 93.47-3.53 94.39-3.75 95.04-4.05L95.04-4.05 96.14-0.4Q95.24 0 93.92 0.3 92.59 0.6 90.99 0.6ZM99.04 11.6L99.04 11.6Q97.54 11.6 96.42 11.3 95.29 11 94.64 10.6L94.64 10.6 95.64 6.85Q96.24 7.2 97.14 7.45 98.04 7.7 99.14 7.7L99.14 7.7Q101.24 7.7 102.89 6.35 104.54 5 106.04 1.05L106.04 1.05 107.19-1.95 104.79-1.95 94.64-24.8 98.64-26.6 108.34-4.95 115.89-26.4 120.04-24.8 110.49 1.3Q109.04 5.3 107.34 7.55 105.64 9.8 103.59 10.7 101.54 11.6 99.04 11.6ZM129.04 0L124.54 0 124.54-26 128.89-26 128.89-21.65Q130.29-23.75 132.46-25.18 134.64-26.6 137.64-26.6L137.64-26.6Q142.04-26.6 144.21-23.95 146.39-21.3 146.39-16.95L146.39-16.95 146.39 0 141.89 0 141.89-16.45Q141.89-19.25 140.56-20.95 139.24-22.65 136.89-22.65L136.89-22.65Q134.59-22.65 132.54-21.03 130.49-19.4 129.04-17.2L129.04-17.2 129.04 0ZM174.38 0L169.63 0 169.63-35 190.38-35 190.38-30.9 174.38-30.9 174.38-20.2 187.73-20.2 187.73-16.3 174.38-16.3 174.38 0ZM200.38 0L195.88 0 195.88-26 200.23-26 200.23-20.35Q200.88-22 201.98-23.43 203.08-24.85 204.73-25.73 206.38-26.6 208.58-26.6L208.58-26.6Q209.33-26.6 210.08-26.53 210.83-26.45 211.33-26.3L211.33-26.3 209.98-21.65Q209.03-22.05 207.73-22.05L207.73-22.05Q205.88-22.05 204.21-21 202.53-19.95 201.46-17.75 200.38-15.55 200.38-12.15L200.38-12.15 200.38 0ZM224.28 0.6L224.28 0.6Q221.03 0.6 218.38-1.05 215.73-2.7 214.15-5.73 212.58-8.75 212.58-12.85L212.58-12.85Q212.58-16.75 214.15-19.85 215.73-22.95 218.5-24.78 221.28-26.6 224.88-26.6L224.88-26.6Q227.13-26.6 228.95-25.83 230.78-25.05 232.13-23.9L232.13-23.9 232.13-26 236.23-26 236.23-6.3Q236.23-4.4 237.15-3.83 238.08-3.25 239.18-3.25L239.18-3.25 238.23 0.25Q233.43 0.25 232.43-3.65L232.43-3.65Q231.28-2.05 229.3-0.73 227.33 0.6 224.28 0.6ZM225.28-3.4L225.28-3.4Q227.18-3.4 228.88-4.33 230.58-5.25 231.73-6.65L231.73-6.65 231.73-20.6Q230.38-21.55 228.75-22.13 227.13-22.7 225.33-22.7L225.33-22.7Q222.93-22.7 221.1-21.48 219.28-20.25 218.23-18.07 217.18-15.9 217.18-13L217.18-13Q217.18-10.2 218.23-8.03 219.28-5.85 221.13-4.63 222.98-3.4 225.28-3.4ZM249.68 0L245.18 0 245.18-26 249.53-26 249.53-21.65Q250.93-23.75 253.1-25.18 255.28-26.6 258.28-26.6L258.28-26.6Q262.68-26.6 264.85-23.95 267.03-21.3 267.03-16.95L267.03-16.95 267.03 0 262.53 0 262.53-16.45Q262.53-19.25 261.2-20.95 259.88-22.65 257.53-22.65L257.53-22.65Q255.23-22.65 253.18-21.03 251.13-19.4 249.68-17.2L249.68-17.2 249.68 0ZM285.27 0.6L285.27 0.6Q281.57 0.6 278.8-1.13 276.02-2.85 274.52-5.93 273.02-9 273.02-13L273.02-13Q273.02-16.75 274.55-19.85 276.07-22.95 278.92-24.78 281.77-26.6 285.62-26.6L285.62-26.6Q287.82-26.6 289.5-26.2 291.17-25.8 292.72-25.05L292.72-25.05 291.37-21.25Q289.97-21.95 288.7-22.28 287.42-22.6 285.87-22.6L285.87-22.6Q282.37-22.6 280-20.08 277.62-17.55 277.62-13.1L277.62-13.1Q277.62-10.4 278.62-8.2 279.62-6 281.4-4.7 283.17-3.4 285.57-3.4L285.57-3.4Q287.47-3.4 288.82-3.83 290.17-4.25 291.72-5.05L291.72-5.05 293.12-1.25Q291.57-0.4 289.65 0.1 287.72 0.6 285.27 0.6ZM283.82 12.2L283.82 12.2Q282.47 12.2 281.22 11.95 279.97 11.7 278.82 11.2L278.82 11.2 280.02 8.05Q281.67 8.9 283.62 8.9L283.62 8.9Q284.92 8.9 285.77 8.45 286.62 8 286.62 7.05L286.62 7.05Q286.62 6.15 285.45 5.45 284.27 4.75 280.97 4.75L280.97 4.75 282.72 0 286.12 0 285.07 2.95Q287.57 2.95 289.12 4.08 290.67 5.2 290.67 7.4L290.67 7.4Q290.67 9.25 288.97 10.73 287.27 12.2 283.82 12.2ZM307.82 0.6L307.82 0.6Q304.57 0.6 301.92-1.05 299.27-2.7 297.7-5.73 296.12-8.75 296.12-12.85L296.12-12.85Q296.12-16.75 297.7-19.85 299.27-22.95 302.05-24.78 304.82-26.6 308.42-26.6L308.42-26.6Q310.67-26.6 312.5-25.83 314.32-25.05 315.67-23.9L315.67-23.9 315.67-26 319.77-26 319.77-6.3Q319.77-4.4 320.7-3.83 321.62-3.25 322.72-3.25L322.72-3.25 321.77 0.25Q316.97 0.25 315.97-3.65L315.97-3.65Q314.82-2.05 312.85-0.73 310.87 0.6 307.82 0.6ZM308.82-3.4L308.82-3.4Q310.72-3.4 312.42-4.33 314.12-5.25 315.27-6.65L315.27-6.65 315.27-20.6Q313.92-21.55 312.3-22.13 310.67-22.7 308.87-22.7L308.87-22.7Q306.47-22.7 304.65-21.48 302.82-20.25 301.77-18.07 300.72-15.9 300.72-13L300.72-13Q300.72-10.2 301.77-8.03 302.82-5.85 304.67-4.63 306.52-3.4 308.82-3.4Z" opacity="1" transform="matrix(1,0,0,1,0,0)" fill="url('#myGradient')" class="wordmark-text-0" data-fill-palette-color="primary" id="text-0"/>
                                                        </svg>
                                                    </g>
                                                </svg>
                                            </g>
                                        </svg>
                                    </g>
                                </svg>
                            </g><g>
                                <svg viewBox="0 0 128.62799245933067 128.62799245933067" height="128.62799245933067" width="128.62799245933067">
                                    <g>
                                        <svg/>
                                    </g>
                                    <g id="icon-0">
                                        <svg viewBox="0 0 128.62799245933067 128.62799245933067" height="128.62799245933067" width="128.62799245933067">
                                            <g>
                                                <path d="M0 64.314c0-35.52 28.794-64.314 64.314-64.314 35.52 0 64.314 28.794 64.314 64.314 0 35.52-28.794 64.314-64.314 64.314-35.52 0-64.314-28.794-64.314-64.314zM64.314 123.708c32.802 0 59.394-26.592 59.394-59.394 0-32.802-26.592-59.394-59.394-59.394-32.802 0-59.394 26.592-59.394 59.394 0 32.802 26.592 59.394 59.394 59.394z" data-fill-palette-color="accent" fill="url('#myGradient')" stroke="transparent"/>
                                            </g>
                                            <g transform="matrix(1,0,0,1,44.30040728530503,30.95801465573149)">
                                                <svg viewBox="0 0 40.027177888720615 66.71196314786769" height="66.71196314786769" width="40.027177888720615">
                                                    <g>
                                                        <svg xmlns="http://www.w3.org/2000/svg" xmlns:xlink="http://www.w3.org/1999/xlink" version="1.1" x="0" y="0" viewBox="14 2 36 60" style="enable-background:new 0 0 64 64;" xml:space="preserve" height="66.71196314786769" width="40.027177888720615" class="icon-dxe-0" data-fill-palette-color="accent" id="dxe-0"><path d="M45 36H42V32H14V57C14 59.8 16.2 62 19 62H37C39.8 62 42 59.8 42 57V54H45C47.8 54 50 51.8 50 49V41C50 38.2 47.8 36 45 36M23.9 54.5L22.2 55.5 17.8 48 22.1 40.5 23.8 41.5 20.2 48zM27 55.3L25 54.7 29 40.7 30.9 41.2zM33.9 55.5L32.2 54.5 35.9 48 32.2 41.5 33.9 40.5 38.2 48zM48 49C48 50.7 46.7 52 45 52H42V38H45C46.7 38 48 39.3 48 41z" fill="url('#myGradient')" data-fill-palette-color="accent"/><g fill="url('#myGradient')" data-fill-palette-color="accent"><path d="M38 30H36V28C36 26.9 35.1 26 34 26H20C17.8 26 16 24.2 16 22S17.8 18 20 18H34C35.1 18 36 17.1 36 16S35.1 14 34 14H20C17.8 14 16 12.2 16 10S17.8 6 20 6H34C35.1 6 36 5.1 36 4V2H38V4C38 6.2 36.2 8 34 8H20C18.9 8 18 8.9 18 10S18.9 12 20 12H34C36.2 12 38 13.8 38 16S36.2 20 34 20H20C18.9 20 18 20.9 18 22S18.9 24 20 24H34C36.2 24 38 25.8 38 28z" fill="url('#myGradient')" data-fill-palette-color="accent"/></g></svg>
                                                    </g>
                                                </svg>
                                            </g>
                                        </svg>
                                    </g>
                                </svg>
                            </g>
    
</svg>